<svg id="Layer_1" data-name="Layer 1" xmlns="http://www.w3.org/2000/svg" style="fill: white;" viewBox="0 0 482.54 482.54">
  <title>FP_rotated</title>
  <g>
    <path d="M321.75,170.12,426.46,274.83,407.89,293.4l-84.26-84.26-46,46,74.09,74.09L333.65,347.3l-74.09-74.09-68.92,68.92-20.45-20.45Z" transform="translate(-8.73 -8.73)"/>
    <path d="M190.58,342.2,123,274.65q-20-20-21-43.74t19.72-44.35q17.74-17.75,41.89-19.91t46.79,20.48l47.14,47.14,64.07-64.07,20.44,20.45ZM132.1,242.05q3.54,9.93,15.27,21.66l40.4,40.4,52.51-52.51-40.4-40.4q-13.66-13.68-28.07-16.31t-29.25,12.22Q125.84,223.82,132.1,242.05Z" transform="translate(-8.73 -8.73)"/>
  </g>
  <path d="M250,8.73C116.75,8.73,8.73,116.75,8.73,250S116.75,491.27,250,491.27,491.27,383.25,491.27,250,383.25,8.73,250,8.73Zm0,453.11C133,461.84,38.16,367,38.16,250S133,38.16,250,38.16,461.84,133,461.84,250,367,461.84,250,461.84Z" transform="translate(-8.73 -8.73)"/>
</svg>
